<svg id="Ebene_1" data-name="Ebene 1" xmlns="http://www.w3.org/2000/svg" viewBox="0 0 441.19 464.14"><defs><style>.cls-1{opacity:0.5;}.cls-2{fill:#e30613;}.cls-3{fill:#936037;}.cls-4{fill:#ca9e67;}.cls-5{fill:#008d36;}.cls-6{fill:#878787;}.cls-7{fill:#d83e8f;}.cls-8{fill:#36a9e1;}.cls-9{fill:none;stroke:#1d1d1b;stroke-miterlimit:10;stroke-width:4px;}.cls-10{fill:#1d71b8;}.cls-11{fill:#009fe3;}</style></defs><g class="cls-1"><rect class="cls-2" x="119.15" y="61.05" width="38.86" height="38.86" transform="translate(10.13 -63.43) rotate(21.68)"/><rect class="cls-3" x="102.98" y="101.71" width="38.86" height="38.86" transform="translate(24.01 -54.59) rotate(21.68)"/><rect class="cls-4" x="143.62" y="117.87" width="38.86" height="38.86" transform="translate(32.85 -68.46) rotate(21.68)"/><rect class="cls-3" x="86.84" y="142.31" width="38.86" height="38.86" transform="translate(37.86 -45.75) rotate(21.68)"/><rect class="cls-4" x="127.48" y="158.47" width="38.86" height="38.86" transform="translate(46.71 -59.62) rotate(21.68)"/><rect class="cls-5" x="168.63" y="174.83" width="38.86" height="38.86" transform="translate(55.66 -73.67) rotate(21.68)"/><rect class="cls-5" x="210.2" y="191.35" width="38.86" height="38.86" transform="translate(64.71 -87.85) rotate(21.68)"/><rect class="cls-5" x="250.84" y="207.51" width="38.86" height="38.86" transform="translate(73.55 -101.72) rotate(21.68)"/><rect class="cls-5" x="291.99" y="223.87" width="38.86" height="38.86" transform="translate(82.51 -115.77) rotate(21.68)"/><rect class="cls-6" x="333.14" y="240.23" width="38.86" height="38.86" transform="translate(91.46 -129.81) rotate(21.68)"/><rect class="cls-7" x="374.29" y="256.59" width="38.86" height="38.86" transform="translate(100.42 -143.86) rotate(21.68)"/><rect class="cls-7" x="406.6" y="175.33" width="38.86" height="38.86" transform="translate(720.57 515.19) rotate(-158.32)"/><rect class="cls-7" x="390.43" y="215.99" width="38.86" height="38.86" transform="translate(674.36 587.67) rotate(-158.32)"/><rect class="cls-6" x="349.28" y="199.63" width="38.86" height="38.86" transform="translate(601.01 540.9) rotate(-158.32)"/><rect class="cls-3" x="70.69" y="182.94" width="38.86" height="38.86" transform="translate(51.73 -36.91) rotate(21.68)"/><rect class="cls-4" x="111.33" y="199.1" width="38.86" height="38.86" transform="translate(60.58 -50.78) rotate(21.68)"/><rect class="cls-5" x="152.48" y="215.46" width="38.86" height="38.86" transform="translate(69.53 -64.83) rotate(21.68)"/><rect class="cls-5" x="194.04" y="231.98" width="38.86" height="38.86" transform="translate(78.57 -79.01) rotate(21.68)"/><rect class="cls-5" x="234.69" y="248.14" width="38.86" height="38.86" transform="translate(87.42 -92.88) rotate(21.68)"/><rect class="cls-5" x="275.84" y="264.5" width="38.86" height="38.86" transform="translate(96.37 -106.93) rotate(21.68)"/><rect class="cls-6" x="316.99" y="280.86" width="38.86" height="38.86" transform="translate(105.33 -120.97) rotate(21.68)"/><rect class="cls-7" x="358.14" y="297.22" width="38.86" height="38.86" transform="translate(114.28 -135.02) rotate(21.68)"/><rect class="cls-3" x="54.54" y="223.57" width="38.86" height="38.86" transform="translate(65.6 -28.07) rotate(21.68)"/><rect class="cls-4" x="95.18" y="239.73" width="38.86" height="38.86" transform="translate(74.44 -41.94) rotate(21.68)"/><rect class="cls-5" x="136.33" y="256.09" width="38.86" height="38.86" transform="translate(83.4 -55.98) rotate(21.68)"/><rect class="cls-5" x="177.89" y="272.61" width="38.86" height="38.86" transform="translate(92.44 -70.17) rotate(21.68)"/><rect class="cls-5" x="218.53" y="288.77" width="38.86" height="38.86" transform="translate(101.29 -84.04) rotate(21.68)"/><rect class="cls-5" x="259.68" y="305.13" width="38.86" height="38.86" transform="translate(110.24 -98.09) rotate(21.68)"/><rect class="cls-6" x="300.84" y="321.49" width="38.86" height="38.86" transform="translate(119.2 -112.13) rotate(21.68)"/><rect class="cls-7" x="341.99" y="337.85" width="38.86" height="38.86" transform="translate(128.15 -126.18) rotate(21.68)"/><rect class="cls-8" x="70.43" y="301.97" width="38.86" height="38.86" transform="translate(95.69 -28.4) rotate(21.68)"/><rect class="cls-8" x="111.59" y="318.33" width="38.86" height="38.86" transform="translate(104.64 -42.44) rotate(21.68)"/><rect class="cls-8" x="153.15" y="334.85" width="38.86" height="38.86" transform="translate(113.68 -56.63) rotate(21.68)"/><rect class="cls-8" x="193.79" y="351.01" width="38.86" height="38.86" transform="translate(122.53 -70.5) rotate(21.68)"/><rect class="cls-8" x="234.94" y="367.37" width="38.86" height="38.86" transform="translate(131.48 -84.54) rotate(21.68)"/><rect class="cls-8" x="276.09" y="383.73" width="38.86" height="38.86" transform="translate(140.44 -98.59) rotate(21.68)"/><rect class="cls-8" x="317.24" y="400.09" width="38.86" height="38.86" transform="translate(149.39 -112.63) rotate(21.68)"/></g><circle class="cls-2" cx="220.59" cy="231.57" r="58.29"/><circle class="cls-9" cx="220.59" cy="231.57" r="145.73"/><circle class="cls-10" cx="220.59" cy="86.54" r="13"/><circle class="cls-10" cx="220.59" cy="377.52" r="13"/><circle class="cls-9" cx="220.59" cy="231.57" r="218.59"/><circle class="cls-11" cx="220.59" cy="13" r="13"/><circle class="cls-11" cx="220.59" cy="451.14" r="13"/><circle class="cls-11" cx="403.62" cy="113.54" r="13"/><circle class="cls-11" cx="403.62" cy="350.73" r="13"/><circle class="cls-11" cx="36.32" cy="113.54" r="13"/><circle class="cls-11" cx="37.49" cy="350.73" r="13"/></svg>